<?xml version="1.0" encoding="utf-8"?>
<!-- Generator: Adobe Illustrator 18.1.1, SVG Export Plug-In . SVG Version: 6.00 Build 0)  -->
<svg version="1.1" id="Layer_1" xmlns="http://www.w3.org/2000/svg" xmlns:xlink="http://www.w3.org/1999/xlink" x="0px" y="0px"
	 viewBox="0 346.6 612 98.8" enable-background="new 0 346.6 612 98.8" xml:space="preserve">
<path fill="#009EDA" d="M305,368.6c0,25,0,49.8,0,74.7c-6.8,0-13.4,0-20.4,0c0-24.9,0-49.8,0-75c-7.3,0-14.3,0-21.4,0
	c0-6.8,0-13.3,0-20c1,0,1.8,0,2.7,0c37.8,0,75.5,0,113.3,0c12.8,0,22.1,7,25.2,19.5c2.7,10.6,1.6,20.6-5.3,29.5
	c-4.6,5.8-10.7,8.4-18,8.7c-4.3,0.1-8.6,0-12.9,0c0.1,1,0.9,0.9,1.3,1.1c11.7,5.1,23.5,10.2,35.2,15.3c1.2,0.5,1.7,1.1,1.7,2.5
	c-0.1,6.8,0,13.5,0,20.6c-20-8.6-39.8-17.1-60-25.8c0,8.1,0,15.8,0,23.6c-6.9,0-13.5,0-20.3,0c-0.1-0.6-0.1-1.1-0.1-1.7
	c-0.1-9.9-0.2-19.9-0.1-29.8c0-4.2,0.6-8.4,2.3-12.4c4-9.2,11.2-13.5,21.1-13.7c8.5-0.1,17.1,0,25.6,0c7,0,10.7-4.8,8.8-11.5
	c-0.9-3.5-3.5-5.6-7-5.6c-23.3,0-46.6,0-70,0C306.3,368.5,305.9,368.6,305,368.6z"/>
<path fill="#009EDA" d="M590.9,347.6c7.1,0,13.8,0,20.7,0c0,0.7,0.1,1.2,0.1,1.8c0.1,21.3,0.2,42.7,0.1,64c0,4.9,0.6,9.9-0.5,14.7
	c-2,9-8.4,13.7-16.8,15.7c-10,2.3-19.2,0.2-26.6-7.4c-4.8-4.9-6.3-11.3-8.1-17.6c-4.1-14.5-7.6-29.2-13.2-43.3
	c-0.9-2.3-2-4.6-3.5-6.6c-0.8-1-1.6-2-3.1-1.6c-1.6,0.5-2.9,1.4-3.1,3.2c-0.1,0.9,0,72.7,0,72.7h-20.9c0,0,0-50.7,0-75.2
	c-0.1-12.9,8.2-19.1,18.3-20.8c8.2-1.4,16.1-0.6,22.7,5.3c5.2,4.6,8.2,10.6,10.8,16.9c4.9,12.4,7.2,25.6,10.8,38.4
	c1.1,4.1,2.2,8.1,3.8,12.1c1,2.4,2.6,4.1,5.3,3.5c2.6-0.6,3.2-2.9,3.2-5.3c0-22.7,0-45.3,0-68C590.9,349.3,590.9,348.5,590.9,347.6z
	"/>
<path fill="#009EDA" d="M256.9,348.6c0,6.4,0,12.9,0,19.4c-0.7,0.6-1.6,0.3-2.5,0.3c-13.9,0-27.8,0.2-41.7-0.1
	c-8.2-0.2-11.8,4.2-13.6,10.4c-0.6,2.2-0.6,4.4-1.1,6.9c19.8,0,39.3,0,59,0c0,6.9,0,13.6,0,20.4c-19.7,0-39.2,0-58.9,0
	c0,12.5,0,24.9,0,37.4c-7.1,0-14,0-20.9,0c-0.1-0.4-0.2-0.8-0.2-1.3c0-17-0.1-33.9,0.1-50.9c0.1-8.3,1.2-16.4,4.5-24.2
	c4.6-11,12.6-17.6,24.6-18.2c16.7-1,33.5-0.2,50.3-0.3C256.6,348.4,256.7,348.5,256.9,348.6z"/>
<path fill="#009EDA" d="M0.1,368.3c0-6.8,0-13.2,0-19.7c0.7-0.5,1.6-0.3,2.3-0.3c16.8,0,33.7,0,50.5,0c13.6,0,22.7,6.9,26,20.1
	c2.6,10.5,1.3,20.5-5.8,29.2c-4.6,5.6-10.6,8.1-17.7,8.3c-7,0.2-13.9,0.1-20.9,0c-11.3-0.2-14.4,7.6-14,15.8
	c0.3,7.1,0,14.3,0.2,21.6c-6.9,0-13.7,0-20.6,0c0-0.7-0.1-1.3-0.1-2c0-9.8-0.1-19.6,0-29.4c0.1-8,2-15.5,8.4-21
	c4.4-3.8,9.5-5.2,15.2-5.2c8.7,0,17.4,0,26,0c4.3,0,6.7-1.6,8-4.9c1.5-3.8,0.6-8-2.2-10.6c-1.5-1.4-3.3-1.8-5.3-1.8
	c-15.8,0-31.5,0-47.3,0C2.1,368.3,1.2,368.3,0.1,368.3z"/>
<g>
	<g>
		<path fill="#009EDA" d="M509.9,391.8c-0.5-9.2-2.7-18-7.3-26c-6.6-11.7-16.6-17.5-30.1-17.5c-9.4,0-18.8,0.1-28.2,0.1
			c-10.5,0-18.6,4.2-24.8,12.5c-7.3,9.8-10.3,20.9-10.7,33c-0.4,12.3,1.5,24.1,8.3,34.7c6.1,9.4,14.4,15,25.9,15
			c5.6,0,10.9,0,16.3,0c2.1,0,4.2,0,6.4,0c5.9,0,14.3,0.3,16.4-0.7c11-2.4,17.9-9.7,22.5-19.5C509.4,413.3,510.5,402.7,509.9,391.8z
			 M487.3,399.1c-0.4,5.7-1.7,11.1-4.6,16.1c-3,5.1-6.7,7.7-13.3,7.7c-6.8,0-13.8,0-20.7,0c-6.1,0-9.8-2.5-12.7-7.3
			c-4.1-7.1-5.1-14.8-4.9-22.8c0.2-5.8,1.3-11.4,4.2-16.6c2.9-5,6.3-7.7,13-7.7c4,0,18.6,0,22.4,0c4.7,0,8.3,1.9,10.9,5.7
			C487.1,381.8,487.9,390.3,487.3,399.1z"/>
	</g>
</g>
<path fill="#009EDA" d="M162.7,366.4c-6.7-12-16.4-18.4-30.5-18.1c-13.8,0.3-27.7,0.1-41.5,0.1c-0.8,0-1.6-0.3-2.3,0.3
	c0,31.5,0,63.1,0,94.7c0.5,0.1,0.8,0.1,1.1,0.1c15,0,30-0.1,44.9,0c11.8,0.1,20.7-5,27-14.8c5.1-7.9,7.7-16.6,8.3-25.9
	C170.5,390.1,169.1,377.8,162.7,366.4z M147.3,397.6c-0.2,6.4-1.5,12.5-4.8,18c-2.9,4.8-6.9,7.4-12.7,7.3c-6.1-0.1-12.2,0-18.3,0
	c-0.6,0-1.3-0.1-2-0.1c0-18.1,0-36,0-54.1c8.1,0,16-0.2,23.8,0.1c4.4,0.2,7.4,3.3,9.6,7C146.8,382.5,147.5,389.9,147.3,397.6z"/>
</svg>
